<svg width="20" height="20" viewBox="0 0 20 20" fill="none" xmlns="http://www.w3.org/2000/svg">
<rect width="20" height="20" fill="none"/>
<path d="M12.9761 5.70082C11.8479 4.57263 11.2838 4.00854 10.5696 3.7048C10.5465 3.69498 10.5233 3.68537 10.5001 3.67599C9.78028 3.38575 8.98253 3.38575 7.38704 3.38575H6.0309V3.38575C5.30029 3.38575 4.70801 3.97803 4.70801 4.70864V4.70864V15.2918V15.2918C4.70801 16.0224 5.30029 16.6147 6.0309 16.6147V16.6147H13.9683V16.6147C14.6989 16.6147 15.2912 16.0224 15.2912 15.2918V15.2918V11.2899C15.2912 9.69438 15.2912 8.89664 15.0009 8.17685C14.9915 8.15357 14.9819 8.13038 14.9721 8.10729C14.6684 7.39309 14.1043 6.829 12.9761 5.70082V5.70082Z" stroke="#358C65" stroke-width="1.2" stroke-linecap="round" stroke-linejoin="round"/>
<path d="M10 4.15137V4.7815C10 6.99064 11.7909 8.7815 14 8.7815H14.6301" stroke="#358C65" stroke-width="1.2" stroke-linecap="round" stroke-linejoin="round"/>
</svg>
