<svg width="110" height="28" viewBox="0 0 110 28" fill="none" xmlns="http://www.w3.org/2000/svg">
<path d="M0.554688 28V0H28.5547V28H0.554688ZM3.31151 25.2439H3.87993H6.39519V24.6748H3.87993V22.1595H3.31151V24.6748V25.2439ZM22.7142 25.2439H25.2302H25.7986V24.6748V22.1595H25.2302V24.6748H22.7142V25.2439ZM23.2252 23.0782C23.4509 23.0782 23.6329 22.8963 23.6329 22.6705C23.6329 20.9366 23.6329 7.06341 23.6329 5.32945C23.6329 5.10374 23.4509 4.92182 23.2252 4.92182C21.4913 4.92182 7.61885 4.92182 5.88489 4.92182C5.65843 4.92182 5.4765 5.10374 5.4765 5.32945C5.4765 7.06341 5.4765 20.9366 5.4765 22.6705C5.4765 22.8963 5.65843 23.0782 5.88489 23.0782C9.35281 23.0782 21.4913 23.0782 23.2252 23.0782ZM8.97688 22.5098V20.147H11.3397V22.5098H8.97688ZM14.8393 22.5098V20.147H17.2021V22.5098H14.8393ZM20.7017 22.5098V20.147H23.0644V22.5098H20.7017ZM6.04568 19.5778V17.2158H8.4077V19.5778H6.04568ZM11.9081 19.5778V17.2158H14.2709V19.5778H11.9081ZM17.7705 19.5778V17.2158H20.1332V19.5778H17.7705ZM8.97688 16.6466V14.2846H11.3397V16.6466H8.97688ZM14.8393 16.6466V14.2846H17.2021V16.6466H14.8393ZM20.7017 16.6466V14.2846H23.0644V16.6466H20.7017ZM6.04568 13.7154V11.3534H8.4077V13.7154H6.04568ZM11.9081 13.7154V11.3534H14.2709V13.7154H11.9081ZM17.7705 13.7154V11.3534H20.1332V13.7154H17.7705ZM8.97688 10.7842V8.42144H11.3397V10.7842H8.97688ZM14.8393 10.7842V8.42144H17.2021V10.7842H14.8393ZM20.7017 10.7842V8.42144H23.0644V10.7842H20.7017ZM6.04568 7.85301V5.49024H8.4077V7.85301H6.04568ZM11.9081 7.85301V5.49024H14.2709V7.85301H11.9081ZM17.7705 7.85301V5.49024H20.1332V7.85301H17.7705ZM3.31151 5.8405H3.87993V3.32524H6.39519V2.75607H3.87993H3.31151V3.32524V5.8405ZM25.2302 5.8405H25.7986V3.32524V2.75607H25.2302H22.7142V3.32524H25.2302V5.8405Z" fill="url(#paint0_linear_5468_9411)"/>
<path d="M46.7542 16.4487C46.8309 16.4487 46.9077 16.4642 46.9845 16.4951C47.0612 16.5198 47.1348 16.5662 47.2051 16.6343L48.4909 17.9427C47.928 18.6541 47.2211 19.1923 46.3704 19.5573C45.526 19.9161 44.5249 20.0955 43.3671 20.0955C42.3053 20.0955 41.3522 19.9223 40.5078 19.5759C39.6699 19.2233 38.9566 18.7407 38.3681 18.1283C37.786 17.5096 37.3383 16.7797 37.0248 15.9383C36.7114 15.0908 36.5547 14.1721 36.5547 13.1823C36.5547 12.1739 36.7242 11.2491 37.0632 10.4077C37.4022 9.56022 37.8788 8.83024 38.4929 8.21779C39.107 7.60535 39.8426 7.129 40.6997 6.78875C41.5569 6.44851 42.5004 6.27838 43.5303 6.27838C44.0548 6.27838 44.5473 6.32478 45.0079 6.41757C45.4748 6.50418 45.9098 6.62791 46.3128 6.78875C46.7158 6.94341 47.0868 7.13209 47.4258 7.3548C47.7649 7.57751 48.0655 7.81878 48.3278 8.0786L47.2339 9.49836C47.1636 9.58497 47.0804 9.66539 46.9845 9.73963C46.8885 9.80768 46.7542 9.8417 46.5815 9.8417C46.4663 9.8417 46.3576 9.81695 46.2552 9.76746C46.1529 9.71797 46.0441 9.6592 45.929 9.59116C45.8139 9.51692 45.6859 9.43959 45.5452 9.35917C45.4109 9.27256 45.2478 9.19523 45.0559 9.12718C44.8704 9.05294 44.6497 8.99108 44.3938 8.94159C44.1443 8.8921 43.8501 8.86736 43.5111 8.86736C42.9737 8.86736 42.4812 8.96324 42.0334 9.15502C41.5921 9.34679 41.2083 9.62827 40.882 9.99945C40.5622 10.3644 40.3127 10.816 40.1336 11.3543C39.9609 11.8863 39.8746 12.4956 39.8746 13.1823C39.8746 13.8752 39.9705 14.4907 40.1624 15.0289C40.3607 15.5671 40.6262 16.0218 40.9588 16.393C41.2978 16.758 41.6912 17.0364 42.139 17.2282C42.5867 17.4199 43.0665 17.5158 43.5782 17.5158C43.8725 17.5158 44.1411 17.5035 44.3842 17.4787C44.6273 17.4478 44.8544 17.4014 45.0655 17.3395C45.2765 17.2715 45.4748 17.1849 45.6603 17.0797C45.8459 16.9683 46.0346 16.8291 46.2265 16.6621C46.3032 16.6003 46.3864 16.5508 46.4759 16.5136C46.5655 16.4703 46.6582 16.4487 46.7542 16.4487Z" fill="#1F1F25"/>
<path d="M52.5544 11.1687C52.9126 10.8717 53.2996 10.6336 53.7154 10.4541C54.1375 10.2686 54.6397 10.1758 55.2218 10.1758C55.7655 10.1758 56.2452 10.2686 56.661 10.4541C57.0832 10.6336 57.4382 10.8872 57.7261 11.2151C58.0139 11.5368 58.2314 11.9234 58.3785 12.375C58.5257 12.8204 58.5992 13.306 58.5992 13.8319V19.9471H55.6248V13.8319C55.6248 13.3617 55.5128 12.9967 55.2889 12.7369C55.0651 12.4709 54.7356 12.3379 54.3007 12.3379C53.9744 12.3379 53.6674 12.4059 53.3795 12.542C53.0981 12.6719 52.823 12.8513 52.5544 13.0802V19.9471H49.5799V6.05568H52.5544V11.1687Z" fill="#1F1F25"/>
<path d="M66.713 13.9803C66.713 13.7515 66.681 13.5287 66.617 13.3122C66.5595 13.0957 66.4603 12.9039 66.3196 12.7369C66.1853 12.5637 66.0062 12.4245 65.7823 12.3193C65.5584 12.2142 65.2865 12.1616 64.9667 12.1616C64.4038 12.1616 63.9624 12.3193 63.6426 12.6348C63.3228 12.9441 63.1117 13.3926 63.0093 13.9803H66.713ZM62.9709 15.6507C63.0669 16.4549 63.3196 17.0395 63.7289 17.4045C64.1383 17.7633 64.6661 17.9427 65.3121 17.9427C65.6575 17.9427 65.955 17.9025 66.2045 17.8221C66.4539 17.7416 66.6746 17.6519 66.8665 17.5529C67.0648 17.454 67.2439 17.3643 67.4038 17.2838C67.5701 17.2034 67.7429 17.1632 67.922 17.1632C68.1586 17.1632 68.3377 17.2467 68.4593 17.4138L69.3228 18.4438C69.0158 18.784 68.6832 19.0624 68.325 19.2789C67.9731 19.4893 67.6085 19.6563 67.2311 19.78C66.8601 19.8976 66.4859 19.978 66.1085 20.0213C65.7375 20.0708 65.3825 20.0955 65.0435 20.0955C64.3462 20.0955 63.6906 19.9873 63.0765 19.7707C62.4688 19.548 61.9347 19.2202 61.4741 18.7871C61.02 18.3541 60.6585 17.8159 60.3899 17.1725C60.1276 16.5291 59.9965 15.7806 59.9965 14.9269C59.9965 14.2835 60.1084 13.6741 60.3323 13.0988C60.5626 12.5235 60.8888 12.0193 61.311 11.5862C61.7396 11.1532 62.2545 10.8099 62.8558 10.5562C63.4635 10.3026 64.1479 10.1758 64.9091 10.1758C65.568 10.1758 66.1693 10.2747 66.713 10.4727C67.2631 10.6707 67.7333 10.9583 68.1235 11.3357C68.5201 11.7131 68.8271 12.177 69.0446 12.7276C69.2685 13.272 69.3804 13.8906 69.3804 14.5835C69.3804 14.8 69.3708 14.9763 69.3516 15.1124C69.3324 15.2485 69.2972 15.3568 69.2461 15.4372C69.1949 15.5176 69.1245 15.5733 69.035 15.6043C68.9518 15.6352 68.8431 15.6507 68.7088 15.6507H62.9709Z" fill="#1F1F25"/>
<path d="M77.1919 12.4307C77.1152 12.5482 77.032 12.6317 76.9425 12.6812C76.8593 12.7307 76.7506 12.7555 76.6162 12.7555C76.4755 12.7555 76.3348 12.7276 76.1941 12.6719C76.0533 12.6101 75.8998 12.5451 75.7335 12.4771C75.5736 12.409 75.3913 12.3472 75.1866 12.2915C74.9819 12.2296 74.7484 12.1987 74.4861 12.1987C74.1087 12.1987 73.8177 12.2698 73.613 12.4121C73.4147 12.5482 73.3156 12.74 73.3156 12.9874C73.3156 13.1668 73.3795 13.3153 73.5075 13.4329C73.6418 13.5504 73.8177 13.6556 74.0352 13.7484C74.2527 13.835 74.4989 13.9185 74.774 13.9989C75.0491 14.0793 75.3305 14.169 75.6184 14.268C75.9062 14.367 76.1877 14.4845 76.4627 14.6206C76.7378 14.7505 76.984 14.9145 77.2015 15.1124C77.419 15.3042 77.5917 15.5393 77.7197 15.8177C77.854 16.0961 77.9212 16.4301 77.9212 16.8199C77.9212 17.2962 77.8316 17.7354 77.6525 18.1376C77.4734 18.5397 77.2047 18.8861 76.8465 19.1769C76.4947 19.4676 76.0565 19.6934 75.532 19.8543C75.0139 20.0151 74.4158 20.0955 73.7377 20.0955C73.3987 20.0955 73.0597 20.0646 72.7207 20.0027C72.3816 19.9409 72.0522 19.8573 71.7324 19.7522C71.4189 19.647 71.1279 19.5233 70.8592 19.381C70.5906 19.2325 70.3603 19.0748 70.1684 18.9077L70.8592 17.8499C70.936 17.7262 71.0319 17.6303 71.1471 17.5622C71.2686 17.488 71.4221 17.4509 71.6076 17.4509C71.7804 17.4509 71.9339 17.488 72.0682 17.5622C72.2089 17.6365 72.3593 17.7169 72.5192 17.8035C72.6791 17.8901 72.8646 17.9705 73.0757 18.0448C73.2932 18.119 73.565 18.1561 73.8913 18.1561C74.1215 18.1561 74.3166 18.1345 74.4766 18.0912C74.6365 18.0417 74.7644 17.9767 74.8604 17.8963C74.9563 17.8159 75.0267 17.7262 75.0714 17.6272C75.1162 17.5282 75.1386 17.4261 75.1386 17.321C75.1386 17.1292 75.0714 16.9714 74.9371 16.8477C74.8028 16.724 74.6269 16.6188 74.4094 16.5322C74.1919 16.4394 73.9424 16.3559 73.661 16.2817C73.3859 16.2012 73.1045 16.1115 72.8166 16.0126C72.5288 15.9136 72.2441 15.796 71.9627 15.6599C71.6876 15.5176 71.4413 15.3413 71.2238 15.131C71.0064 14.9145 70.8304 14.6516 70.6961 14.3422C70.5618 14.0329 70.4946 13.6587 70.4946 13.2194C70.4946 12.8111 70.5746 12.4245 70.7345 12.0595C70.9008 11.6883 71.1471 11.3635 71.4733 11.0851C71.7995 10.8068 72.2089 10.5872 72.7015 10.4263C73.194 10.2593 73.7697 10.1758 74.4286 10.1758C74.7868 10.1758 75.1322 10.2067 75.4648 10.2686C75.8039 10.3304 76.1205 10.417 76.4147 10.5284C76.709 10.6397 76.9776 10.7727 77.2207 10.9274C77.4638 11.0759 77.6781 11.2398 77.8636 11.4192L77.1919 12.4307Z" fill="#1F1F25"/>
<path d="M85.7375 12.4307C85.6607 12.5482 85.5776 12.6317 85.488 12.6812C85.4049 12.7307 85.2961 12.7555 85.1618 12.7555C85.0211 12.7555 84.8803 12.7276 84.7396 12.6719C84.5989 12.6101 84.4454 12.5451 84.2791 12.4771C84.1191 12.409 83.9368 12.3472 83.7321 12.2915C83.5274 12.2296 83.294 12.1987 83.0317 12.1987C82.6543 12.1987 82.3632 12.2698 82.1586 12.4121C81.9603 12.5482 81.8611 12.74 81.8611 12.9874C81.8611 13.1668 81.9251 13.3153 82.053 13.4329C82.1873 13.5504 82.3632 13.6556 82.5807 13.7484C82.7982 13.835 83.0445 13.9185 83.3195 13.9989C83.5946 14.0793 83.8761 14.169 84.1639 14.268C84.4518 14.367 84.7332 14.4845 85.0083 14.6206C85.2833 14.7505 85.5296 14.9145 85.7471 15.1124C85.9646 15.3042 86.1373 15.5393 86.2652 15.8177C86.3995 16.0961 86.4667 16.4301 86.4667 16.8199C86.4667 17.2962 86.3772 17.7354 86.198 18.1376C86.0189 18.5397 85.7503 18.8861 85.3921 19.1769C85.0402 19.4676 84.6021 19.6934 84.0776 19.8543C83.5594 20.0151 82.9613 20.0955 82.2833 20.0955C81.9443 20.0955 81.6052 20.0646 81.2662 20.0027C80.9272 19.9409 80.5978 19.8573 80.2779 19.7522C79.9645 19.647 79.6735 19.5233 79.4048 19.381C79.1361 19.2325 78.9058 19.0748 78.7139 18.9077L79.4048 17.8499C79.4815 17.7262 79.5775 17.6303 79.6926 17.5622C79.8142 17.488 79.9677 17.4509 80.1532 17.4509C80.3259 17.4509 80.4794 17.488 80.6138 17.5622C80.7545 17.6365 80.9048 17.7169 81.0647 17.8035C81.2246 17.8901 81.4101 17.9705 81.6212 18.0448C81.8387 18.119 82.1106 18.1561 82.4368 18.1561C82.6671 18.1561 82.8622 18.1345 83.0221 18.0912C83.182 18.0417 83.31 17.9767 83.4059 17.8963C83.5019 17.8159 83.5722 17.7262 83.617 17.6272C83.6618 17.5282 83.6842 17.4261 83.6842 17.321C83.6842 17.1292 83.617 16.9714 83.4827 16.8477C83.3483 16.724 83.1724 16.6188 82.9549 16.5322C82.7374 16.4394 82.488 16.3559 82.2065 16.2817C81.9315 16.2012 81.65 16.1115 81.3622 16.0126C81.0743 15.9136 80.7897 15.796 80.5082 15.6599C80.2332 15.5176 79.9869 15.3413 79.7694 15.131C79.5519 14.9145 79.376 14.6516 79.2417 14.3422C79.1073 14.0329 79.0402 13.6587 79.0402 13.2194C79.0402 12.8111 79.1201 12.4245 79.2801 12.0595C79.4464 11.6883 79.6926 11.3635 80.0189 11.0851C80.3451 10.8068 80.7545 10.5872 81.247 10.4263C81.7396 10.2593 82.3153 10.1758 82.9741 10.1758C83.3323 10.1758 83.6778 10.2067 84.0104 10.2686C84.3494 10.3304 84.666 10.417 84.9603 10.5284C85.2545 10.6397 85.5232 10.7727 85.7663 10.9274C86.0093 11.0759 86.2236 11.2398 86.4091 11.4192L85.7375 12.4307Z" fill="#1F1F25"/>
<path d="M91.0015 10.3242V19.9471H88.0271V10.3242H91.0015ZM91.3086 7.68886C91.3086 7.91776 91.2606 8.13428 91.1647 8.33843C91.0687 8.53639 90.9376 8.7127 90.7713 8.86736C90.605 9.01583 90.4099 9.13646 90.186 9.22926C89.9685 9.31587 89.735 9.35917 89.4855 9.35917C89.2425 9.35917 89.0154 9.31587 88.8043 9.22926C88.5932 9.13646 88.4045 9.01583 88.2382 8.86736C88.0783 8.7127 87.9503 8.53639 87.8544 8.33843C87.7648 8.13428 87.7201 7.91776 87.7201 7.68886C87.7201 7.45378 87.7648 7.23417 87.8544 7.03002C87.9503 6.82587 88.0783 6.64647 88.2382 6.49181C88.4045 6.33716 88.5932 6.21652 88.8043 6.12991C89.0154 6.04331 89.2425 6 89.4855 6C89.735 6 89.9685 6.04331 90.186 6.12991C90.4099 6.21652 90.605 6.33716 90.7713 6.49181C90.9376 6.64647 91.0687 6.82587 91.1647 7.03002C91.2606 7.23417 91.3086 7.45378 91.3086 7.68886Z" fill="#1F1F25"/>
<path d="M93.8336 19.9471V12.3008L93.1811 12.1709C92.9572 12.1214 92.7749 12.044 92.6342 11.9389C92.4999 11.8337 92.4327 11.679 92.4327 11.4749V10.3428H93.8336V9.79531C93.8336 9.24472 93.9231 8.74672 94.1022 8.30131C94.2877 7.85589 94.55 7.47544 94.889 7.15993C95.2344 6.84443 95.6534 6.60007 96.146 6.42686C96.6385 6.25364 97.1982 6.16703 97.8251 6.16703C98.0682 6.16703 98.2921 6.1825 98.4967 6.21343C98.7014 6.23817 98.9157 6.28148 99.1396 6.34334L99.082 7.74454C99.0756 7.84352 99.0501 7.92704 99.0053 7.99509C98.9605 8.05695 98.8997 8.10953 98.823 8.15284C98.7526 8.18995 98.6759 8.2178 98.5927 8.23636C98.5095 8.25491 98.4264 8.26419 98.3432 8.26419C98.081 8.26419 97.8475 8.28894 97.6428 8.33843C97.4381 8.38792 97.2654 8.47762 97.1247 8.60753C96.9903 8.73126 96.888 8.89829 96.8176 9.10862C96.7473 9.31277 96.7121 9.5726 96.7121 9.8881V10.3428H99.0437V12.31H96.808V19.9471H93.8336Z" fill="#1F1F25"/>
<path d="M109.555 10.3242L104.239 22.4432C104.149 22.635 104.041 22.7742 103.913 22.8608C103.785 22.9536 103.58 23 103.299 23H101.073L102.992 19.1026L99.0194 10.3242H101.648C101.879 10.3242 102.055 10.3737 102.176 10.4727C102.304 10.5717 102.397 10.6892 102.454 10.8253L104.086 14.9733C104.239 15.3506 104.364 15.7373 104.46 16.1332C104.53 15.9352 104.6 15.7373 104.671 15.5393C104.741 15.3413 104.815 15.1465 104.892 14.9547L106.369 10.8253C106.427 10.683 106.529 10.5655 106.676 10.4727C106.823 10.3737 106.983 10.3242 107.156 10.3242H109.555Z" fill="#1F1F25"/>
<defs>
<linearGradient id="paint0_linear_5468_9411" x1="0.554688" y1="28" x2="28.5547" y2="0" gradientUnits="userSpaceOnUse">
<stop stop-color="#26A777"/>
<stop offset="1" stop-color="#0B4634"/>
</linearGradient>
</defs>
</svg>
