<svg width="110" height="28" xmlns="http://www.w3.org/2000/svg" fill="none">
 <defs>
  <linearGradient y2="0" x2="1" y1="1" x1="0" id="paint0_linear_5468_9411">
   <stop stop-color="#26A777"/>
   <stop stop-color="#0B4634" offset="1"/>
  </linearGradient>
 </defs>
 <g>
  <title>Layer 1</title>
  <path id="svg_1" fill="url(#paint0_linear_5468_9411)" d="m0.55469,28l0,-28l28.00001,0l0,28l-28.00001,0zm2.75682,-2.7561l0.56842,0l2.51526,0l0,-0.5691l-2.51526,0l0,-2.5153l-0.56842,0l0,2.5153l0,0.5691zm19.40269,0l2.516,0l0.5684,0l0,-0.5691l0,-2.5153l-0.5684,0l0,2.5153l-2.516,0l0,0.5691zm0.511,-2.1657c0.2257,0 0.4077,-0.1819 0.4077,-0.4077c0,-1.7339 0,-15.60709 0,-17.34105c0,-0.22571 -0.182,-0.40763 -0.4077,-0.40763c-1.7339,0 -15.60635,0 -17.34031,0c-0.22646,0 -0.40839,0.18192 -0.40839,0.40763c0,1.73396 0,15.60715 0,17.34105c0,0.2258 0.18193,0.4077 0.40839,0.4077c3.46792,0 15.60641,0 17.34031,0zm-14.24832,-0.5684l0,-2.3628l2.36282,0l0,2.3628l-2.36282,0zm5.86242,0l0,-2.3628l2.3628,0l0,2.3628l-2.3628,0zm5.8624,0l0,-2.3628l2.3627,0l0,2.3628l-2.3627,0zm-14.65602,-2.932l0,-2.362l2.36202,0l0,2.362l-2.36202,0zm5.86242,0l0,-2.362l2.3628,0l0,2.362l-2.3628,0zm5.8624,0l0,-2.362l2.3627,0l0,2.362l-2.3627,0zm-8.79362,-2.9312l0,-2.362l2.36282,0l0,2.362l-2.36282,0zm5.86242,0l0,-2.362l2.3628,0l0,2.362l-2.3628,0zm5.8624,0l0,-2.362l2.3627,0l0,2.362l-2.3627,0zm-14.65602,-2.9312l0,-2.362l2.36202,0l0,2.362l-2.36202,0zm5.86242,0l0,-2.362l2.3628,0l0,2.362l-2.3628,0zm5.8624,0l0,-2.362l2.3627,0l0,2.362l-2.3627,0zm-8.79362,-2.9312l0,-2.36276l2.36282,0l0,2.36276l-2.36282,0zm5.86242,0l0,-2.36276l2.3628,0l0,2.36276l-2.3628,0zm5.8624,0l0,-2.36276l2.3627,0l0,2.36276l-2.3627,0zm-14.65602,-2.93119l0,-2.36277l2.36202,0l0,2.36277l-2.36202,0zm5.86242,0l0,-2.36277l2.3628,0l0,2.36277l-2.3628,0zm5.8624,0l0,-2.36277l2.3627,0l0,2.36277l-2.3627,0zm-14.45899,-2.01251l0.56842,0l0,-2.51526l2.51526,0l0,-0.56917l-2.51526,0l-0.56842,0l0,0.56917l0,2.51526zm21.91869,0l0.5684,0l0,-2.51526l0,-0.56917l-0.5684,0l-2.516,0l0,0.56917l2.516,0l0,2.51526z"/>
  <path id="svg_2" fill="#666666" d="m46.7542,16.4487c0.0767,0 0.1535,0.0155 0.2303,0.0464c0.0767,0.0247 0.1503,0.0711 0.2206,0.1392l1.2858,1.3084c-0.5629,0.7114 -1.2698,1.2496 -2.1205,1.6146c-0.8444,0.3588 -1.8455,0.5382 -3.0033,0.5382c-1.0618,0 -2.0149,-0.1732 -2.8593,-0.5196c-0.8379,-0.3526 -1.5512,-0.8352 -2.1397,-1.4476c-0.5821,-0.6187 -1.0298,-1.3486 -1.3433,-2.19c-0.3134,-0.8475 -0.4701,-1.7662 -0.4701,-2.756c0,-1.0084 0.1695,-1.9332 0.5085,-2.7746c0.339,-0.84748 0.8156,-1.57746 1.4297,-2.18991c0.6141,-0.61244 1.3497,-1.08879 2.2068,-1.42904c0.8572,-0.34024 1.8007,-0.51037 2.8306,-0.51037c0.5245,0 1.017,0.0464 1.4776,0.13919c0.4669,0.08661 0.9019,0.21034 1.3049,0.37118c0.403,0.15466 0.774,0.34334 1.113,0.56605c0.3391,0.22271 0.6397,0.46398 0.902,0.7238l-1.0939,1.41976c-0.0703,0.08661 -0.1535,0.16703 -0.2494,0.24127c-0.096,0.06805 -0.2303,0.10207 -0.403,0.10207c-0.1152,0 -0.2239,-0.02475 -0.3263,-0.07424c-0.1023,-0.04949 -0.2111,-0.10826 -0.3262,-0.1763c-0.1151,-0.07424 -0.2431,-0.15157 -0.3838,-0.23199c-0.1343,-0.08661 -0.2974,-0.16394 -0.4893,-0.23199c-0.1855,-0.07424 -0.4062,-0.1361 -0.6621,-0.18559c-0.2495,-0.04949 -0.5437,-0.07423 -0.8827,-0.07423c-0.5374,0 -1.0299,0.09588 -1.4777,0.28766c-0.4413,0.19177 -0.8251,0.47325 -1.1514,0.84443c-0.3198,0.36495 -0.5693,0.81655 -0.7484,1.35485c-0.1727,0.532 -0.259,1.1413 -0.259,1.828c0,0.6929 0.0959,1.3084 0.2878,1.8466c0.1983,0.5382 0.4638,0.9929 0.7964,1.3641c0.339,0.365 0.7324,0.6434 1.1802,0.8352c0.4477,0.1917 0.9275,0.2876 1.4392,0.2876c0.2943,0 0.5629,-0.0123 0.806,-0.0371c0.2431,-0.0309 0.4702,-0.0773 0.6813,-0.1392c0.211,-0.068 0.4093,-0.1546 0.5948,-0.2598c0.1856,-0.1114 0.3743,-0.2506 0.5662,-0.4176c0.0767,-0.0618 0.1599,-0.1113 0.2494,-0.1485c0.0896,-0.0433 0.1823,-0.0649 0.2783,-0.0649z"/>
  <path id="svg_3" fill="#666666" d="m52.5544,11.1687c0.3582,-0.297 0.7452,-0.5351 1.161,-0.7146c0.4221,-0.1855 0.9243,-0.2783 1.5064,-0.2783c0.5437,0 1.0234,0.0928 1.4392,0.2783c0.4222,0.1795 0.7772,0.4331 1.0651,0.761c0.2878,0.3217 0.5053,0.7083 0.6524,1.1599c0.1472,0.4454 0.2207,0.931 0.2207,1.4569l0,6.1152l-2.9744,0l0,-6.1152c0,-0.4702 -0.112,-0.8352 -0.3359,-1.095c-0.2238,-0.266 -0.5533,-0.399 -0.9882,-0.399c-0.3263,0 -0.6333,0.068 -0.9212,0.2041c-0.2814,0.1299 -0.5565,0.3093 -0.8251,0.5382l0,6.8669l-2.9745,0l0,-13.89142l2.9745,0l0,5.11302z"/>
  <path id="svg_4" fill="#666666" d="m66.713,13.9803c0,-0.2288 -0.032,-0.4516 -0.096,-0.6681c-0.0575,-0.2165 -0.1567,-0.4083 -0.2974,-0.5753c-0.1343,-0.1732 -0.3134,-0.3124 -0.5373,-0.4176c-0.2239,-0.1051 -0.4958,-0.1577 -0.8156,-0.1577c-0.5629,0 -1.0043,0.1577 -1.3241,0.4732c-0.3198,0.3093 -0.5309,0.7578 -0.6333,1.3455l3.7037,0zm-3.7421,1.6704c0.096,0.8042 0.3487,1.3888 0.758,1.7538c0.4094,0.3588 0.9372,0.5382 1.5832,0.5382c0.3454,0 0.6429,-0.0402 0.8924,-0.1206c0.2494,-0.0805 0.4701,-0.1702 0.662,-0.2692c0.1983,-0.0989 0.3774,-0.1886 0.5373,-0.2691c0.1663,-0.0804 0.3391,-0.1206 0.5182,-0.1206c0.2366,0 0.4157,0.0835 0.5373,0.2506l0.8635,1.03c-0.307,0.3402 -0.6396,0.6186 -0.9978,0.8351c-0.3519,0.2104 -0.7165,0.3774 -1.0939,0.5011c-0.371,0.1176 -0.7452,0.198 -1.1226,0.2413c-0.371,0.0495 -0.726,0.0742 -1.065,0.0742c-0.6973,0 -1.3529,-0.1082 -1.967,-0.3248c-0.6077,-0.2227 -1.1418,-0.5505 -1.6024,-0.9836c-0.4541,-0.433 -0.8156,-0.9712 -1.0842,-1.6146c-0.2623,-0.6434 -0.3934,-1.3919 -0.3934,-2.2456c0,-0.6434 0.1119,-1.2528 0.3358,-1.8281c0.2303,-0.5753 0.5565,-1.0795 0.9787,-1.5126c0.4286,-0.433 0.9435,-0.7763 1.5448,-1.03c0.6077,-0.2536 1.2921,-0.3804 2.0533,-0.3804c0.6589,0 1.2602,0.0989 1.8039,0.2969c0.5501,0.198 1.0203,0.4856 1.4105,0.863c0.3966,0.3774 0.7036,0.8413 0.9211,1.3919c0.2239,0.5444 0.3358,1.163 0.3358,1.8559c0,0.2165 -0.0096,0.3928 -0.0288,0.5289c-0.0192,0.1361 -0.0544,0.2444 -0.1055,0.3248c-0.0512,0.0804 -0.1216,0.1361 -0.2111,0.1671c-0.0832,0.0309 -0.1919,0.0464 -0.3262,0.0464l-5.7379,0z"/>
  <path id="svg_5" fill="#666666" d="m77.1919,12.4307c-0.0767,0.1175 -0.1599,0.201 -0.2494,0.2505c-0.0832,0.0495 -0.1919,0.0743 -0.3263,0.0743c-0.1407,0 -0.2814,-0.0279 -0.4221,-0.0836c-0.1408,-0.0618 -0.2943,-0.1268 -0.4606,-0.1948c-0.1599,-0.0681 -0.3422,-0.1299 -0.5469,-0.1856c-0.2047,-0.0619 -0.4382,-0.0928 -0.7005,-0.0928c-0.3774,0 -0.6684,0.0711 -0.8731,0.2134c-0.1983,0.1361 -0.2974,0.3279 -0.2974,0.5753c0,0.1794 0.0639,0.3279 0.1919,0.4455c0.1343,0.1175 0.3102,0.2227 0.5277,0.3155c0.2175,0.0866 0.4637,0.1701 0.7388,0.2505c0.2751,0.0804 0.5565,0.1701 0.8444,0.2691c0.2878,0.099 0.5693,0.2165 0.8443,0.3526c0.2751,0.1299 0.5213,0.2939 0.7388,0.4918c0.2175,0.1918 0.3902,0.4269 0.5182,0.7053c0.1343,0.2784 0.2015,0.6124 0.2015,1.0022c0,0.4763 -0.0896,0.9155 -0.2687,1.3177c-0.1791,0.4021 -0.4478,0.7485 -0.806,1.0393c-0.3518,0.2907 -0.79,0.5165 -1.3145,0.6774c-0.5181,0.1608 -1.1162,0.2412 -1.7943,0.2412c-0.339,0 -0.678,-0.0309 -1.017,-0.0928c-0.3391,-0.0618 -0.6685,-0.1454 -0.9883,-0.2505c-0.3135,-0.1052 -0.6045,-0.2289 -0.8732,-0.3712c-0.2686,-0.1485 -0.4989,-0.3062 -0.6908,-0.4733l0.6908,-1.0578c0.0768,-0.1237 0.1727,-0.2196 0.2879,-0.2877c0.1215,-0.0742 0.275,-0.1113 0.4605,-0.1113c0.1728,0 0.3263,0.0371 0.4606,0.1113c0.1407,0.0743 0.2911,0.1547 0.451,0.2413c0.1599,0.0866 0.3454,0.167 0.5565,0.2413c0.2175,0.0742 0.4893,0.1113 0.8156,0.1113c0.2302,0 0.4253,-0.0216 0.5853,-0.0649c0.1599,-0.0495 0.2878,-0.1145 0.3838,-0.1949c0.0959,-0.0804 0.1663,-0.1701 0.211,-0.2691c0.0448,-0.099 0.0672,-0.2011 0.0672,-0.3062c0,-0.1918 -0.0672,-0.3496 -0.2015,-0.4733c-0.1343,-0.1237 -0.3102,-0.2289 -0.5277,-0.3155c-0.2175,-0.0928 -0.467,-0.1763 -0.7484,-0.2505c-0.2751,-0.0805 -0.5565,-0.1702 -0.8444,-0.2691c-0.2878,-0.099 -0.5725,-0.2166 -0.8539,-0.3527c-0.2751,-0.1423 -0.5214,-0.3186 -0.7389,-0.5289c-0.2174,-0.2165 -0.3934,-0.4794 -0.5277,-0.7888c-0.1343,-0.3093 -0.2015,-0.6835 -0.2015,-1.1228c0,-0.4083 0.08,-0.7949 0.2399,-1.1599c0.1663,-0.3712 0.4126,-0.696 0.7388,-0.9744c0.3262,-0.2783 0.7356,-0.4979 1.2282,-0.6588c0.4925,-0.167 1.0682,-0.2505 1.7271,-0.2505c0.3582,0 0.7036,0.0309 1.0362,0.0928c0.3391,0.0618 0.6557,0.1484 0.9499,0.2598c0.2943,0.1113 0.5629,0.2443 0.806,0.399c0.2431,0.1485 0.4574,0.3124 0.6429,0.4918l-0.6717,1.0115z"/>
  <path id="svg_6" fill="#666666" d="m85.7375,12.4307c-0.0768,0.1175 -0.1599,0.201 -0.2495,0.2505c-0.0831,0.0495 -0.1919,0.0743 -0.3262,0.0743c-0.1407,0 -0.2815,-0.0279 -0.4222,-0.0836c-0.1407,-0.0618 -0.2942,-0.1268 -0.4605,-0.1948c-0.16,-0.0681 -0.3423,-0.1299 -0.547,-0.1856c-0.2047,-0.0619 -0.4381,-0.0928 -0.7004,-0.0928c-0.3774,0 -0.6685,0.0711 -0.8731,0.2134c-0.1983,0.1361 -0.2975,0.3279 -0.2975,0.5753c0,0.1794 0.064,0.3279 0.1919,0.4455c0.1343,0.1175 0.3102,0.2227 0.5277,0.3155c0.2175,0.0866 0.4638,0.1701 0.7388,0.2505c0.2751,0.0804 0.5566,0.1701 0.8444,0.2691c0.2879,0.099 0.5693,0.2165 0.8444,0.3526c0.275,0.1299 0.5213,0.2939 0.7388,0.4918c0.2175,0.1918 0.3902,0.4269 0.5181,0.7053c0.1343,0.2784 0.2015,0.6124 0.2015,1.0022c0,0.4763 -0.0895,0.9155 -0.2687,1.3177c-0.1791,0.4021 -0.4477,0.7485 -0.8059,1.0393c-0.3519,0.2907 -0.79,0.5165 -1.3145,0.6774c-0.5182,0.1608 -1.1163,0.2412 -1.7943,0.2412c-0.339,0 -0.6781,-0.0309 -1.0171,-0.0928c-0.339,-0.0618 -0.6684,-0.1454 -0.9883,-0.2505c-0.3134,-0.1052 -0.6044,-0.2289 -0.8731,-0.3712c-0.2687,-0.1485 -0.499,-0.3062 -0.6909,-0.4733l0.6909,-1.0578c0.0767,-0.1237 0.1727,-0.2196 0.2878,-0.2877c0.1216,-0.0742 0.2751,-0.1113 0.4606,-0.1113c0.1727,0 0.3262,0.0371 0.4606,0.1113c0.1407,0.0743 0.291,0.1547 0.4509,0.2413c0.1599,0.0866 0.3454,0.167 0.5565,0.2413c0.2175,0.0742 0.4894,0.1113 0.8156,0.1113c0.2303,0 0.4254,-0.0216 0.5853,-0.0649c0.1599,-0.0495 0.2879,-0.1145 0.3838,-0.1949c0.096,-0.0804 0.1663,-0.1701 0.2111,-0.2691c0.0448,-0.099 0.0672,-0.2011 0.0672,-0.3062c0,-0.1918 -0.0672,-0.3496 -0.2015,-0.4733c-0.1344,-0.1237 -0.3103,-0.2289 -0.5278,-0.3155c-0.2175,-0.0928 -0.4669,-0.1763 -0.7484,-0.2505c-0.275,-0.0805 -0.5565,-0.1702 -0.8443,-0.2691c-0.2879,-0.099 -0.5725,-0.2166 -0.854,-0.3527c-0.275,-0.1423 -0.5213,-0.3186 -0.7388,-0.5289c-0.2175,-0.2165 -0.3934,-0.4794 -0.5277,-0.7888c-0.1344,-0.3093 -0.2015,-0.6835 -0.2015,-1.1228c0,-0.4083 0.0799,-0.7949 0.2399,-1.1599c0.1663,-0.3712 0.4125,-0.696 0.7388,-0.9744c0.3262,-0.2783 0.7356,-0.4979 1.2281,-0.6588c0.4926,-0.167 1.0683,-0.2505 1.7271,-0.2505c0.3582,0 0.7037,0.0309 1.0363,0.0928c0.339,0.0618 0.6556,0.1484 0.9499,0.2598c0.2942,0.1113 0.5629,0.2443 0.806,0.399c0.243,0.1485 0.4573,0.3124 0.6428,0.4918l-0.6716,1.0115z"/>
  <path id="svg_7" fill="#666666" d="m91.0015,10.3242l0,9.6229l-2.9744,0l0,-9.6229l2.9744,0zm0.3071,-2.63534c0,0.2289 -0.048,0.44542 -0.1439,0.64957c-0.096,0.19796 -0.2271,0.37427 -0.3934,0.52893c-0.1663,0.14847 -0.3614,0.2691 -0.5853,0.3619c-0.2175,0.08661 -0.451,0.12991 -0.7005,0.12991c-0.243,0 -0.4701,-0.0433 -0.6812,-0.12991c-0.2111,-0.0928 -0.3998,-0.21343 -0.5661,-0.3619c-0.1599,-0.15466 -0.2879,-0.33097 -0.3838,-0.52893c-0.0896,-0.20415 -0.1343,-0.42067 -0.1343,-0.64957c0,-0.23508 0.0447,-0.45469 0.1343,-0.65884c0.0959,-0.20415 0.2239,-0.38355 0.3838,-0.53821c0.1663,-0.15465 0.355,-0.27529 0.5661,-0.3619c0.2111,-0.0866 0.4382,-0.12991 0.6812,-0.12991c0.2495,0 0.483,0.04331 0.7005,0.12991c0.2239,0.08661 0.419,0.20725 0.5853,0.3619c0.1663,0.15466 0.2974,0.33406 0.3934,0.53821c0.0959,0.20415 0.1439,0.42376 0.1439,0.65884z"/>
  <path id="svg_8" fill="#666666" d="m93.8336,19.9471l0,-7.6463l-0.6525,-0.1299c-0.2239,-0.0495 -0.4062,-0.1269 -0.5469,-0.232c-0.1343,-0.1052 -0.2015,-0.2599 -0.2015,-0.464l0,-1.1321l1.4009,0l0,-0.54749c0,-0.55059 0.0895,-1.04859 0.2686,-1.494c0.1855,-0.44542 0.4478,-0.82587 0.7868,-1.14138c0.3454,-0.3155 0.7644,-0.55986 1.257,-0.73307c0.4925,-0.17322 1.0522,-0.25983 1.6791,-0.25983c0.2431,0 0.467,0.01547 0.6716,0.0464c0.2047,0.02474 0.419,0.06805 0.6429,0.12991l-0.0576,1.4012c-0.0064,0.09898 -0.0319,0.1825 -0.0767,0.25055c-0.0448,0.06186 -0.1056,0.11444 -0.1823,0.15775c-0.0704,0.03711 -0.1471,0.06496 -0.2303,0.08352c-0.0832,0.01855 -0.1663,0.02783 -0.2495,0.02783c-0.2622,0 -0.4957,0.02475 -0.7004,0.07424c-0.2047,0.04949 -0.3774,0.13919 -0.5181,0.2691c-0.1344,0.12373 -0.2367,0.29076 -0.3071,0.50109c-0.0703,0.20415 -0.1055,0.46398 -0.1055,0.77948l0,0.4547l2.3316,0l0,1.9672l-2.2357,0l0,7.6371l-2.9744,0z"/>
  <path id="svg_9" fill="#666666" d="m109.555,10.3242l-5.316,12.119c-0.09,0.1918 -0.198,0.331 -0.326,0.4176c-0.128,0.0928 -0.333,0.1392 -0.614,0.1392l-2.226,0l1.919,-3.8974l-3.9726,-8.7784l2.6286,0c0.231,0 0.407,0.0495 0.528,0.1485c0.128,0.099 0.221,0.2165 0.278,0.3526l1.632,4.148c0.153,0.3773 0.278,0.764 0.374,1.1599c0.07,-0.198 0.14,-0.3959 0.211,-0.5939c0.07,-0.198 0.144,-0.3928 0.221,-0.5846l1.477,-4.1294c0.058,-0.1423 0.16,-0.2598 0.307,-0.3526c0.147,-0.099 0.307,-0.1485 0.48,-0.1485l2.399,0z"/>
 </g>
</svg>