<svg width="24" height="25" viewBox="0 0 24 25" fill="none" xmlns="http://www.w3.org/2000/svg">
<rect width="24" height="24" transform="translate(0 0.140625)" fill="none"/>
<path d="M9 8.03203C8.69624 8.03203 8.45 8.27827 8.45 8.58203C8.45 8.88579 8.69624 9.13203 9 9.13203V8.03203ZM15 9.13203C15.3038 9.13203 15.55 8.88579 15.55 8.58203C15.55 8.27827 15.3038 8.03203 15 8.03203V9.13203ZM9 9.13203H15V8.03203H9V9.13203Z" fill="#959D99"/>
<path d="M9.5 12.7742C9.19624 12.7742 8.95 13.0205 8.95 13.3242C8.95 13.628 9.19624 13.8742 9.5 13.8742V12.7742ZM14.5 13.8742C14.8038 13.8742 15.05 13.628 15.05 13.3242C15.05 13.0205 14.8038 12.7742 14.5 12.7742V13.8742ZM9.5 13.8742H14.5V12.7742H9.5V13.8742Z" fill="#959D99"/>
<path d="M12 10.8242V15.8242" stroke="#959D99" stroke-width="1.1" stroke-linecap="round"/>
</svg>
