<svg width="24" height="25" viewBox="0 0 24 25" fill="none" xmlns="http://www.w3.org/2000/svg">
<rect width="24" height="24" transform="translate(0 0.140625)" fill="none"/>
<path d="M9 7.14922C8.69624 7.14922 8.45 7.39546 8.45 7.69922C8.45 8.00298 8.69624 8.24922 9 8.24922V7.14922ZM15 8.24922C15.3038 8.24922 15.55 8.00298 15.55 7.69922C15.55 7.39546 15.3038 7.14922 15 7.14922V8.24922ZM9 8.24922H15V7.14922H9V8.24922Z" fill="#1F1F25"/>
<path d="M9 9.03203C8.69624 9.03203 8.45 9.27827 8.45 9.58203C8.45 9.88579 8.69624 10.132 9 10.132V9.03203ZM15 10.132C15.3038 10.132 15.55 9.88579 15.55 9.58203C15.55 9.27827 15.3038 9.03203 15 9.03203V10.132ZM9 10.132H15V9.03203H9V10.132Z" fill="#1F1F25"/>
<path d="M9.5 13.7742C9.19624 13.7742 8.95 14.0205 8.95 14.3242C8.95 14.628 9.19624 14.8742 9.5 14.8742V13.7742ZM14.5 14.8742C14.8038 14.8742 15.05 14.628 15.05 14.3242C15.05 14.0205 14.8038 13.7742 14.5 13.7742V14.8742ZM9.5 14.8742H14.5V13.7742H9.5V14.8742Z" fill="#1F1F25"/>
<path d="M12 11.8242V16.8242" stroke="#1F1F25" stroke-width="1.1" stroke-linecap="round"/>
</svg>
