<svg width="24" height="25" viewBox="0 0 24 25" fill="none" xmlns="http://www.w3.org/2000/svg">
<rect width="24" height="24" transform="translate(0 0.140625)" fill="none"/>
<path d="M5.26562 11.5906C4.96187 11.5906 4.71562 11.8369 4.71562 12.1406C4.71562 12.4444 4.96187 12.6906 5.26562 12.6906V11.5906ZM9.26562 12.6906C9.56938 12.6906 9.81563 12.4444 9.81563 12.1406C9.81563 11.8369 9.56938 11.5906 9.26562 11.5906V12.6906ZM5.26562 12.6906H9.26562V11.5906H5.26562V12.6906Z" fill="#959D99"/>
<path d="M12.5 11.5906C12.1962 11.5906 11.95 11.8369 11.95 12.1406C11.95 12.4444 12.1962 12.6906 12.5 12.6906V11.5906ZM17.5 12.6906C17.8038 12.6906 18.05 12.4444 18.05 12.1406C18.05 11.8369 17.8038 11.5906 17.5 11.5906V12.6906ZM12.5 12.6906H17.5V11.5906H12.5V12.6906Z" fill="#959D99"/>
<path d="M15 9.64062V14.6406" stroke="#959D99" stroke-width="1.1" stroke-linecap="round"/>
</svg>
