<svg width="24" height="25" viewBox="0 0 24 25" fill="none" xmlns="http://www.w3.org/2000/svg">
<rect width="24" height="24" transform="translate(0 0.140625)" fill="none"/>
<path d="M9 13.1492C8.69624 13.1492 8.45 13.3955 8.45 13.6992C8.45 14.003 8.69624 14.2492 9 14.2492V13.1492ZM15 14.2492C15.3038 14.2492 15.55 14.003 15.55 13.6992C15.55 13.3955 15.3038 13.1492 15 13.1492V14.2492ZM9 14.2492H15V13.1492H9V14.2492Z" fill="#1F1F25"/>
<path d="M9 15.032C8.69624 15.032 8.45 15.2783 8.45 15.582C8.45 15.8858 8.69624 16.132 9 16.132V15.032ZM15 16.132C15.3038 16.132 15.55 15.8858 15.55 15.582C15.55 15.2783 15.3038 15.032 15 15.032V16.132ZM9 16.132H15V15.032H9V16.132Z" fill="#1F1F25"/>
<circle cx="10.5" cy="10.1406" r="1.5" stroke="#1F1F25"/>
<circle cx="13.5" cy="10.1406" r="1.5" stroke="#1F1F25"/>
</svg>
