<svg width="24" height="25" viewBox="0 0 24 25" fill="none" xmlns="http://www.w3.org/2000/svg">
<rect width="24" height="24" transform="translate(0 0.140625)" fill="none"/>
<path d="M8.46143 9.71484H9.24774H15.5382" stroke="#959D99" stroke-linecap="round" stroke-linejoin="round"/>
<path d="M10.4275 9.71325V8.92694C10.4275 8.71839 10.5104 8.51839 10.6578 8.37093C10.8053 8.22347 11.0053 8.14062 11.2138 8.14062H12.7864C12.995 8.14062 13.195 8.22347 13.3424 8.37093C13.4899 8.51839 13.5728 8.71839 13.5728 8.92694V9.71325M14.7522 9.71325V15.2174C14.7522 15.426 14.6694 15.626 14.5219 15.7734C14.3745 15.9209 14.1745 16.0037 13.9659 16.0037H10.0344C9.82581 16.0037 9.62581 15.9209 9.47835 15.7734C9.33089 15.626 9.24805 15.426 9.24805 15.2174V9.71325H14.7522Z" stroke="#959D99" stroke-linecap="round" stroke-linejoin="round"/>
</svg>
