<svg width="24" height="25" viewBox="0 0 24 25" fill="none" xmlns="http://www.w3.org/2000/svg">
<rect width="24" height="24" transform="translate(0 0.140625)" fill="none"/>
<path d="M9 10.5926C8.69624 10.5926 8.45 10.8388 8.45 11.1426C8.45 11.4463 8.69624 11.6926 9 11.6926V10.5926ZM15 11.6926C15.3038 11.6926 15.55 11.4463 15.55 11.1426C15.55 10.8388 15.3038 10.5926 15 10.5926V11.6926ZM9 11.6926H15V10.5926H9V11.6926Z" fill="#959D99"/>
<path d="M9 12.5887C8.69624 12.5887 8.45 12.8349 8.45 13.1387C8.45 13.4424 8.69624 13.6887 9 13.6887V12.5887ZM15 13.6887C15.3038 13.6887 15.55 13.4424 15.55 13.1387C15.55 12.8349 15.3038 12.5887 15 12.5887V13.6887ZM9 13.6887H15V12.5887H9V13.6887Z" fill="#959D99"/>
</svg>
