<svg width="17" height="17" viewBox="0 0 17 17" fill="none" xmlns="http://www.w3.org/2000/svg">
    <path d="M4.39648 1.68262L2.39648 4.34928V13.6826C2.39648 14.0362 2.53696 14.3754 2.78701 14.6254C3.03706 14.8755 3.3762 15.016 3.72982 15.016H13.0632C13.4168 15.016 13.7559 14.8755 14.006 14.6254C14.256 14.3754 14.3965 14.0362 14.3965 13.6826V4.34928L12.3965 1.68262H4.39648Z" stroke="#358C65" stroke-width="1.1" stroke-linecap="round" stroke-linejoin="round"/>
    <path d="M2.39648 4.34961H14.3965" stroke="#358C65" stroke-width="1.1" stroke-linecap="round" stroke-linejoin="round"/>
    <path d="M11.0631 7.0166C11.0631 7.72385 10.7821 8.40212 10.282 8.90222C9.78192 9.40232 9.10365 9.68327 8.3964 9.68327C7.68916 9.68327 7.01088 9.40232 6.51078 8.90222C6.01069 8.40212 5.72974 7.72385 5.72974 7.0166" stroke="#358C65" stroke-width="1.1" stroke-linecap="round" stroke-linejoin="round"/>
</svg>
