<svg width="24" height="25" viewBox="0 0 24 25" fill="none" xmlns="http://www.w3.org/2000/svg">
<rect width="24" height="24" transform="translate(0 0.140625)" fill="none"/>
<path d="M9.5 10.5906C9.19624 10.5906 8.95 10.8369 8.95 11.1406C8.95 11.4444 9.19624 11.6906 9.5 11.6906V10.5906ZM14.5 11.6906C14.8038 11.6906 15.05 11.4444 15.05 11.1406C15.05 10.8369 14.8038 10.5906 14.5 10.5906V11.6906ZM9.5 11.6906H14.5V10.5906H9.5V11.6906Z" fill="#959D99"/>
<path d="M12 8.64062V13.6406" stroke="#959D99" stroke-width="1.1" stroke-linecap="round"/>
<path d="M9.5 15.5447C9.19624 15.5447 8.95 15.791 8.95 16.0947C8.95 16.3985 9.19624 16.6447 9.5 16.6447V15.5447ZM14.5 16.6447C14.8038 16.6447 15.05 16.3985 15.05 16.0947C15.05 15.791 14.8038 15.5447 14.5 15.5447V16.6447ZM9.5 16.6447H14.5V15.5447H9.5V16.6447Z" fill="#959D99"/>
</svg>
