<svg width="24" height="25" viewBox="0 0 24 25" fill="none" xmlns="http://www.w3.org/2000/svg">
<rect width="24" height="24" transform="translate(0 0.140625)" fill="none"/>
<path d="M5 11.5906C4.69624 11.5906 4.45 11.8369 4.45 12.1406C4.45 12.4444 4.69624 12.6906 5 12.6906V11.5906ZM10 12.6906C10.3038 12.6906 10.55 12.4444 10.55 12.1406C10.55 11.8369 10.3038 11.5906 10 11.5906V12.6906ZM5 12.6906H10V11.5906H5V12.6906Z" fill="#959D99"/>
<path d="M7.5 9.64062V14.6406" stroke="#959D99" stroke-width="1.1" stroke-linecap="round"/>
<path d="M14 11.5906C13.6962 11.5906 13.45 11.8369 13.45 12.1406C13.45 12.4444 13.6962 12.6906 14 12.6906V11.5906ZM18 12.6906C18.3038 12.6906 18.55 12.4444 18.55 12.1406C18.55 11.8369 18.3038 11.5906 18 11.5906V12.6906ZM14 12.6906H18V11.5906H14V12.6906Z" fill="#959D99"/>
</svg>
