<svg width="24" height="25" viewBox="0 0 24 25" fill="none" xmlns="http://www.w3.org/2000/svg">
<rect width="24" height="24" transform="translate(0 0.140625)" fill="none"/>
<path d="M9.5 9.59062C9.19624 9.59062 8.95 9.83687 8.95 10.1406C8.95 10.4444 9.19624 10.6906 9.5 10.6906V9.59062ZM14.5 10.6906C14.8038 10.6906 15.05 10.4444 15.05 10.1406C15.05 9.83687 14.8038 9.59062 14.5 9.59062V10.6906ZM9.5 10.6906H14.5V9.59062H9.5V10.6906Z" fill="#1F1F25"/>
<path d="M12 7.64062V12.6406" stroke="#1F1F25" stroke-width="1.1" stroke-linecap="round"/>
<path d="M9.5 14.5437C9.19624 14.5437 8.95 14.79 8.95 15.0938C8.95 15.3975 9.19624 15.6438 9.5 15.6438V14.5437ZM14.5 15.6438C14.8038 15.6438 15.05 15.3975 15.05 15.0938C15.05 14.79 14.8038 14.5437 14.5 14.5437V15.6438ZM9.5 15.6438H14.5V14.5437H9.5V15.6438Z" fill="#1F1F25"/>
<path d="M9.5 16.4266C9.19624 16.4266 8.95 16.6728 8.95 16.9766C8.95 17.2803 9.19624 17.5266 9.5 17.5266V16.4266ZM14.5 17.5266C14.8038 17.5266 15.05 17.2803 15.05 16.9766C15.05 16.6728 14.8038 16.4266 14.5 16.4266V17.5266ZM9.5 17.5266H14.5V16.4266H9.5V17.5266Z" fill="#1F1F25"/>
</svg>
